<?xml version="1.0"?>
<svg width="260" height="287" xmlns="http://www.w3.org/2000/svg">
 <metadata id="metadata7">image/svg+xml</metadata>

 <g>
  <title>background</title>
  <rect fill="none" id="canvas_background" height="289" width="262" y="-1" x="-1"/>
 </g>
 <g>
  <title>Layer 1</title>
  <path fill="#999999" d="m35.305931,127.975327c4.337379,11.11348 -1.537762,22.261398 3.947701,33.224609c2.50145,12.31015 9.241688,23.231979 10.913799,35.830353c1.63723,10.729462 7.381149,20.015503 10.790478,30.336334c8.00116,24.7771 29.981094,44.690445 55.214149,50.760483c12.292114,3.979065 25.729507,-3.686676 20.739838,-17.520569c1.297668,-5.809204 7.242035,-10.216339 4.906723,-1.014496c-6.029755,15.094421 11.703064,18.913025 22.844208,16.443695c13.78624,3.824707 20.363953,-9.226379 30.89505,-13.090302c10.719879,-6.661224 18.568329,-15.345184 23.488098,-27.446747c7.631943,-8.954971 10.133682,-21.134979 11.626343,-32.512482c-0.03447,-14.144669 12.84494,-24.804916 14.282288,-39.128662c2.179489,-11.226974 1.195801,-23.247162 3.913879,-34.139648c5.509903,-10.473465 2.83139,-23.607269 -3.510529,-33.101517c-2.795471,-11.685669 -8.719604,-23.264236 -16.852478,-32.318985c-9.392059,-10.603893 -16.508224,-23.021053 -26.128662,-33.467203c-13.060303,-7.418001 -24.729065,-21.258851 -41.202728,-19.697731c-10.022568,2.58516 -14.635895,17.232311 -14.478455,26.665262c4.823532,5.069267 -2.957336,23.948948 -3.329895,9.448936c-1.219376,-12.846378 -1.848846,-26.443668 -8.958221,-37.665488c-11.471794,-4.86567 -26.859276,3.3116 -33.905144,12.521501c-12.257225,2.08507 -19.178955,13.011469 -26.576324,21.930059c-8.070137,8.588829 -16.568348,16.916512 -20.538109,28.376518c-5.127808,11.673515 -12.6992,22.377174 -15.268219,35.1278c-1.706181,6.668922 -2.922951,13.532829 -2.813789,20.438278z" id="path2343"/>
  <path fill="#666666" d="m35.305931,127.975327c4.337379,11.11348 -1.537762,22.261398 3.947708,33.224609c2.501442,12.31015 9.241692,23.231979 10.913792,35.830353c1.637238,10.729462 7.381149,20.015503 10.790478,30.336334c8.00116,24.7771 29.981102,44.690445 55.214149,50.760483c12.292114,3.979065 25.729507,-3.686676 20.739838,-17.520569c1.297668,-5.809204 7.242035,-10.216339 4.906723,-1.014496c-6.029755,15.094421 11.703064,18.913025 22.844208,16.443695c13.78624,3.824707 20.363953,-9.226379 30.89505,-13.090302c10.719879,-6.661224 18.568329,-15.345184 23.488098,-27.446747c7.631943,-8.954971 10.133682,-21.134979 11.626343,-32.512482c-0.03447,-14.144669 12.84494,-24.804916 14.282288,-39.128662c2.179489,-11.226974 1.195801,-23.247162 3.913879,-34.139648c5.509903,-10.473465 2.83139,-23.607269 -3.510529,-33.101517c-2.795471,-11.685677 -8.719604,-23.264236 -16.852478,-32.318985c-9.392059,-10.603905 -16.508224,-23.021053 -26.128662,-33.467203c-13.060303,-7.418001 -24.729065,-21.258851 -41.202728,-19.697731c-10.022568,2.58516 -14.635895,17.232311 -14.478455,26.665262c4.823532,5.069267 -2.957336,23.948948 -3.329895,9.448936c-1.219376,-12.846378 -1.848846,-26.443668 -8.958221,-37.665488c-11.471794,-4.86568 -26.859276,3.3116 -33.905144,12.521501c-12.25721,2.08507 -19.178955,13.011469 -26.576324,21.930059c-8.070137,8.588829 -16.568348,16.916512 -20.538109,28.376518c-5.127808,11.673515 -12.6992,22.377174 -15.268219,35.1278c-1.706169,6.668922 -2.922951,13.532829 -2.813789,20.438278zm7.766819,16.604065c4.13974,-10.740936 1.723801,-23.447762 3.668991,-35.17218c3.04472,-3.918175 12.469078,0.64946 10.02964,-9.223442c7.129971,-9.507469 24.226246,-3.432251 31.501995,3.998543c5.267807,2.293716 6.157295,20.413597 10.536224,7.960655c1.61071,-13.574181 13.29818,-5.031525 18.495979,-8.488724c-11.191071,-3.88636 -22.228912,-23.758675 -5.152977,-27.831093c13.1642,-5.972 -1.43959,20.411507 15.301041,18.622223c9.838577,-1.722115 6.079376,7.79657 -1.454323,4.631645c-6.961945,-0.413681 -13.419289,0.008224 -3.540764,4.527443c-5.837418,5.342979 -17.923218,8.465248 -25.018997,14.760338c-12.302368,6.455017 -11.344994,-18.831871 -20.310127,-8.696541c-3.6446,10.871155 -19.900402,15.970024 -18.014244,30.185226c1.952572,6.619614 -7.646019,16.937393 4.916611,13.475677c0.707397,-10.93779 0.989967,-26.353653 13.223801,-31.080063c9.396973,-4.085266 14.482941,14.447983 25.380852,5.883728c10.267609,-4.26709 19.319275,-18.184929 31.63549,-11.630936c12.724167,-3.078972 1.524017,28.431656 -1.438004,10.511551c3.65799,-12.304787 -9.27771,-1.273384 -15.721466,-1.527466c-10.409523,5.708557 -17.480766,21.842133 -31.514259,18.041626c-3.185486,-3.497147 -11.667397,-15.859375 -8.800293,-3.69397c2.786209,5.171204 -7.688667,19.487183 3.416138,13.234482c10.325653,-6.939484 4.186646,14.008881 -4.638222,13.398972c-11.428802,6.318756 -17.396896,-8.394287 -24.960316,-10.26236c2.01572,8.804749 18.731609,16.242065 13.196201,29.163589c2.596359,7.615646 -0.751442,20.05806 -6.860081,7.734039c0.623089,-7.264877 -12.352173,-20.181412 -1.347412,-20.857193c-9.448109,-3.326431 -12.217739,-16.0504 -6.68148,-24.554077c-3.209347,0.277191 -5.81538,3.501724 -5.849998,-3.111694zm5.899799,-15.010864c1.183029,2.418259 0.307529,-3.606438 0,0zm2.812981,-36.817696c1.626999,-7.136269 13.36824,-11.173859 8.37772,-18.285965c7.988506,-7.659477 12.167164,2.456635 5.230694,8.585556c-2.404354,4.301918 -8.750023,11.067299 -13.608414,9.700409zm7.368511,112.793083c2.2262,-7.889648 13.682575,5.771164 11.503529,-5.391006c-3.488663,-12.429626 2.152138,-25.056305 14.29213,-29.75705c11.792709,-8.78537 2.64537,13.943756 6.057953,20.214996c4.043297,10.200317 17.077095,24.414581 5.196701,32.814056c-0.853622,-10.993835 -16.940056,-12.426254 -23.169815,-5.474304c4.720512,9.057983 16.873619,-9.538849 14.09346,5.862198c-4.615807,6.190048 -25.194729,2.237549 -16.161942,-8.290405c8.681091,-10.223434 -3.785713,-4.578201 -7.884476,-5.582825c-1.293831,-1.478912 -2.615582,-2.932922 -3.92754,-4.39566zm2.688519,-97.234566c5.922546,5.748039 11.54248,-7.674042 1.502899,-2.206131l-1.070808,1.092812l-0.432102,1.113319l0.000011,0zm6.248299,-20.686623c4.715729,-6.900269 9.492775,-14.943138 17.199608,-17.9702c-0.652573,-4.498024 8.380661,-12.875027 -0.354668,-6.388077c-1.3461,6.964722 -11.159271,8.136993 -8.104172,-1.063789c-15.099976,3.938797 0.532249,-9.71706 6.817757,-9.852211c5.45784,-3.363331 14.513466,-7.37429 4.417793,-9.712238c4.358055,-10.458382 19.561935,7.488167 4.046852,8.254868c-5.704132,-0.578148 -17.50441,11.745651 -4.929092,5.720272c15.647751,-4.451912 6.959015,12.794426 1.291534,16.266487c8.24118,14.064125 10.63633,-19.593616 17.580742,-11.910896c5.289795,-1.51474 19.568954,3.288292 6.50647,4.752098c-12.595825,7.228477 -13.533463,22.184158 -16.191299,34.134857c-8.405815,-4.896057 -18.507782,-6.896484 -27.816406,-9.750031l-0.415337,-1.759216l-0.049789,-0.721924l0.000008,0zm6.12384,146.32486c6.631981,2.409058 16.753815,-1.596603 22.379372,0.273804c-1.69381,8.596725 -17.700287,-1.691666 -8.755119,9.829758c-1.649338,4.313385 -9.716743,-9.28096 -13.624252,-10.103561zm0.298721,-33.905167c5.990242,6.170074 26.89843,-2.095932 10.090042,-5.862457c-7.549225,-5.896118 -8.401024,-0.944885 -10.090042,5.862457zm3.908302,-118.842239c0.155495,6.994118 11.6521,10.341751 3.982971,2.215523c-0.396065,-0.03698 -3.530861,-4.674919 -3.982971,-2.215523zm16.355118,85.111359c1.099792,-5.213058 11.179916,-18.861328 11.326599,-9.384903c-8.667542,12.321518 10.920174,22.01712 6.861473,32.281067c8.481438,-1.51709 15.261742,9.839523 3.44902,11.405594c-12.118004,9.789719 -19.159019,-12.327972 -20.357094,-21.638901c-0.453659,-4.21814 -0.852272,-8.442032 -1.279999,-12.662857zm1.244682,-121.107567c4.816391,3.66301 2.356125,-4.31303 0,0zm1.518517,200.144905c4.38015,-1.598495 6.342903,-2.674561 6.918678,-8.701599c6.763176,-0.732208 19.244156,-0.301163 22.885902,3.474152c-6.951622,4.92215 -21.092903,-6.603806 -19.621696,7.73558c-5.294502,-7.509644 -5.611221,6.674072 -10.182884,-2.508133zm1.518509,-208.583858c3.498489,-2.683887 19.710602,0.252342 8.21489,4.779591c-3.021408,-0.02256 -7.013206,-1.874249 -8.21489,-4.779591zm3.161491,218.068325c4.541054,-3.879395 13.07193,10.703613 1.81723,2.564026l-1.356926,-1.281586l-0.460312,-1.282455l0.000008,0.000015zm3.485107,-25.441299c8.431274,-9.224838 2.507065,-23.80365 15.680901,-28.39325c5.051399,0.766418 3.731659,10.670639 9.635925,5.167465c9.878265,-2.951233 -12.954811,-19.979034 -1.758087,-24.753845c5.168259,-4.01442 -2.522217,-16.78038 6.985748,-13.33342c2.999084,12.805481 1.399796,26.521774 -0.828537,39.399979c-5.490921,6.32785 -16.704445,-1.203186 -12.282425,10.023773c-10.180275,13.988297 14.560791,-6.661591 12.406555,6.365662c-2.955811,8.645538 -23.200935,10.934189 -29.84008,5.523636zm2.240433,-77.668182c2.668549,-12.727448 18.608597,-21.297852 28.727257,-10.579788c2.211685,10.598679 -18.328926,13.206024 -11.724907,25.914276c7.110756,4.173325 -0.331909,15.972473 -3.3731,6.26593c-7.36232,-5.952759 0.971138,-17.043304 -2.717392,-20.825424c-3.239067,-2.026443 -8.696381,1.110168 -10.911858,-0.774994zm1.493622,-96.13924c3.828392,-6.941212 21.277153,-2.118732 22.449867,3.746758c-6.1082,10.173695 -11.368027,-6.953098 -16.927048,-4.372021c-1.464119,0.70483 -5.446487,4.061451 -5.52282,0.625263zm0.896172,205.57172c6.064346,-3.104126 7.677544,6.432343 1.194878,1.642944l-1.194893,-1.642975l0.000015,0.000031zm0.871269,-215.504292c5.643715,-5.33387 9.371849,1.20512 0,0zm12.048531,-14.98597c3.360298,-2.71183 4.073524,2.134258 0,0zm1.394035,228.598324c2.55117,-10.375412 11.868248,6.601654 0.651199,1.647614l-0.487709,-0.742218l-0.163498,-0.905396l0.000008,0zm2.564049,-228.050665c4.913864,-2.21961 2.437012,4.595869 0,0zm7.094681,200.418737c3.171432,-5.864746 2.37204,4.970444 0,0zm12.571289,-89.691818c3.865738,-10.001862 0.808472,-22.49733 3.839462,-31.930107c8.039658,3.410278 10.932602,13.900139 20.529099,14.172546c-7.931305,5.330635 -17.620346,12.869469 -15.929611,23.93119c3.988922,9.538818 17.78363,-7.972992 24.946381,3.015076c10.967102,6.327347 13.393295,21.252762 7.375977,31.639252c0.133316,6.250977 3.238907,19.932999 -2.99765,21.132324c-1.113159,-4.831299 -3.136078,-12.776489 -8.437653,-10.590591c-6.432587,-9.810196 -3.913422,-19.642303 -0.390594,-29.196686c1.237686,-5.917328 -1.455811,-19.371765 -7.516129,-8.442566c1.001511,7.279495 -3.368851,0.106644 -4.637711,7.756927c-12.972473,0.233994 -17.676743,-9.771988 -16.78157,-21.487366zm0.124466,-68.855812c-1.134232,-13.090458 9.80632,3.257622 0,0zm1.593201,152.224648c7.766571,-1.361008 20.341476,4.302475 27.034485,-5.800247c6.182083,1.190399 11.645386,-13.708099 10.953217,-8.986603c-4.173508,8.670547 -7.698166,26.452988 -20.807205,22.555908c-7.576172,-1.414948 -15.631607,11.642365 -15.780197,-2.477249c-0.495819,-1.753464 -1.3629,-3.433456 -1.400299,-5.291809zm0.049789,-53.123047c-1.863831,-11.041611 18.863922,-7.50769 14.524353,2.055496c4.360031,5.872314 -3.113892,10.143738 1.970306,17.003738c-0.673615,7.278656 -3.245895,14.680573 -9.001678,17.683762c-14.740372,-4.400269 0.432159,-20.069 -2.929657,-26.948822c-6.843842,2.195923 -3.317612,-6.412964 -4.563324,-9.794174zm2.190643,-81.078598c2.309891,-5.616356 8.600266,-3.746483 4.435272,0.887817c8.218689,2.428856 16.434372,12.260551 23.274979,1.669945c-0.899628,-4.452118 1.347519,-11.915138 4.350327,-3.997749c3.12323,-6.406624 5.373581,12.07785 -1.989075,12.393188c-6.68895,1.146713 -8.556992,6.7183 -16.297714,6.32695c-4.799667,-5.673271 -5.761108,-14.91861 -13.773788,-17.280151zm0,-30.34536c1.685364,-7.048489 7.870056,3.91584 0.167664,1.2728l-0.167679,-1.272789l0.000015,-0.000011zm0.099579,157.278038c2.319992,-8.449661 4.628403,1.797989 0,0zm0.697021,27.8311c6.562317,-1.38855 14.791,0.829208 19.610703,2.254929c1.533844,-4.418579 1.65509,-16.955551 6.185028,-5.806061c1.62384,10.369583 -8.629364,12.46492 -15.306335,6.287689c-3.128311,-1.195831 -8.760529,0.667679 -10.489395,-2.736557zm1.742538,-171.143799c2.17334,-5.137299 7.107605,6.293388 0,0zm3.833618,-33.357479c4.406204,-7.248981 9.051941,2.023628 0,0zm12.944702,27.10918c3.44194,-4.309914 4.120544,4.907013 0,0zm2.190643,55.164307c3.704086,-8.697517 8.350739,-1.174507 0.364395,1.035522l-0.36441,-1.035522l0.000015,0zm3.410431,83.468376c3.154037,-8.345642 3.761215,-2.675446 4.928925,1.891922c7.894363,4.744171 -4.541122,0.959274 -4.928925,-1.891922zm2.962341,-67.810272c3.407883,-7.562912 10.051437,-18.408142 4.779449,-24.664574c14.000122,0.326546 8.043655,13.920738 7.54631,21.016228c8.004807,-2.023102 12.534821,-19.510033 19.829086,-4.602234c1.927139,10.430008 1.553604,23.393036 15.084976,25.195816c16.2444,-8.360535 11.29866,14.951248 6.543213,22.38916c-4.119339,-5.48671 7.18959,-23.620102 -6.224426,-16.727203c-15.192856,-3.968399 -26.674026,-16.752731 -42.530075,-19.168457c-1.767075,-0.830353 -4.17308,-1.430588 -5.028534,-3.438736zm0.522766,-72.714333c3.0504,-10.05283 5.134476,6.965195 0,0zm0.273834,187.67318c4.203217,-3.636871 8.99263,-10.852432 13.643005,-12.500275c-1.152802,6.348419 -0.837051,14.925766 -10.067902,15.785965c0.396271,-4.90976 0.222015,-3.051117 -3.575104,-3.28569zm0,-221.379177c1.276764,-4.412361 1.789978,3.3615 0,0zm5.72554,207.986401c5.520966,-9.760254 7.345734,6.083389 0,0zm0.149353,-10.330856c-2.983704,-12.409988 20.540573,-18.85791 22.19751,-7.944641c-3.146881,4.153183 -24.197922,2.927643 -11.442368,8.146423c4.718765,0.29068 18.249527,-8.135742 11.549561,1.690109c0.083588,3.941086 -14.637482,15.216537 -6.884811,4.354172c4.205521,-7.904724 -18.490219,8.034332 -15.419891,-6.246063zm2.887665,19.367249c1.98201,3.101212 1.981827,-3.101288 0,0zm3.982986,-169.525726c-0.49086,-10.600136 14.185928,-9.349686 8.544739,-0.505684c-8.890793,5.902763 19.213272,6.321915 14.656128,16.63678c-6.796494,-7.964882 -22.25058,9.640167 -20.81105,-7.220001c0.018372,-3.27858 -2.479126,-5.701035 -2.389816,-8.911095zm0.995743,107.366287c4.108917,-7.115921 0.741333,-30.844604 13.716385,-19.541504c6.941071,4.113327 -0.420212,17.894226 8.567581,23.775574c3.29512,5.829773 4.361908,13.78154 -5.216721,14.031662c-5.590851,2.705261 8.619034,4.579117 1.266739,10.606567c-5.313797,-1.196045 -7.47789,-6.416321 -12.235046,-5.447388c0.79657,-8.741241 -4.419556,-15.527115 -6.098938,-23.424911zm0.970856,-45.878983c5.00032,9.128983 18.908051,-16.548599 6.995102,-6.248306c-2.243149,2.034149 -5.67067,3.422729 -6.995102,6.248306zm1.344254,-30.619179c8.441925,-11.341797 18.917267,4.549057 25.042999,10.729156c3.782806,2.915787 10.736206,18.283607 9.902283,5.118927c0.549988,-7.391068 -6.819794,-15.037987 -6.566544,-20.577873c6.500641,3.641045 11.71933,9.6045 17.525131,13.791077c3.65773,8.921158 -7.997742,20.035965 -1.966599,28.179596c-12.151154,7.886047 -20.812714,-2.594849 -21.433517,-14.79834c-3.759506,-10.713905 -13.133911,-19.32695 -22.503754,-22.442543l0,0zm0.672119,-47.870472c2.908447,-7.577312 7.103653,5.377651 0.130173,1.800259l-0.130173,-1.800259l0,0zm4.132355,129.646084c-1.115479,12.521957 17.077911,6.826675 9.446533,-1.857758c-3.569183,-9.493851 -9.311218,-7.783829 -9.446533,1.857758zm3.385529,-12.123199c5.975586,2.948029 3.339218,-7.630798 0,0zm7.268951,-119.489487c0.362152,-10.019249 5.828476,0.95039 0,0zm3.261063,14.363632c0.021179,-10.072548 14.913345,3.38755 1.468719,1.418938l-1.176956,-0.131882l-0.291763,-1.287056l0,0zm2.190643,6.298096c10.202957,-4.615768 18.934525,10.575882 22.075729,18.94426c9.359192,6.887955 -6.424591,10.490105 -6.971283,3.391396c0.273331,-14.059303 -11.734451,-10.673386 -15.104446,-22.335655zm2.140854,138.433548c3.833191,-11.340286 6.252808,0.783066 0,0zm0.871277,-41.721756c5.49501,-7.092499 7.558807,19.57782 2.083099,6.173782c-0.857834,-1.996262 -1.70813,-4.016785 -2.083099,-6.173782zm1.443832,30.09642c1.713684,-3.881424 1.713684,3.881424 0,0z" id="path2341"/>
  <path fill="#666666" d="m35.305931,127.975327c4.337379,11.11348 -1.537762,22.261398 3.947701,33.224609c2.50145,12.31015 9.241688,23.231979 10.913799,35.830353c1.63723,10.729462 7.381149,20.015503 10.790478,30.336334c8.00116,24.7771 29.981094,44.690445 55.214149,50.760483c12.292114,3.979065 25.729507,-3.686676 20.739838,-17.520569c1.297668,-5.809204 7.242035,-10.216339 4.906723,-1.014496c-6.029755,15.094421 11.703064,18.913025 22.844208,16.443695c13.78624,3.824707 20.363953,-9.226379 30.89505,-13.090302c10.719879,-6.661224 18.568329,-15.345184 23.488098,-27.446747c7.631943,-8.954971 10.133682,-21.134979 11.626343,-32.512482c-0.03447,-14.144669 12.84494,-24.804916 14.282288,-39.128662c2.179489,-11.226974 1.195801,-23.247162 3.913879,-34.139648c5.509903,-10.473465 2.83139,-23.607269 -3.510529,-33.101517c-2.795471,-11.685669 -8.719604,-23.264229 -16.852478,-32.318985c-9.392059,-10.603893 -16.508224,-23.021053 -26.128662,-33.467203c-13.060303,-7.418001 -24.729065,-21.258851 -41.202728,-19.697731c-10.022568,2.58516 -14.635895,17.232311 -14.478455,26.665262c4.823532,5.069267 -2.957336,23.948948 -3.329895,9.448936c-1.219376,-12.846378 -1.848846,-26.443668 -8.958221,-37.665488c-11.471794,-4.86567 -26.859276,3.3116 -33.905144,12.521501c-12.257225,2.08507 -19.178955,13.011469 -26.576324,21.930059c-8.070137,8.588829 -16.568348,16.916512 -20.538109,28.376518c-5.127808,11.673515 -12.6992,22.377174 -15.268219,35.1278c-1.706181,6.668922 -2.922951,13.532829 -2.813789,20.438278zm2.165749,0.348511c-1.089748,-7.075661 6.192642,-15.783501 3.77652,-20.540916c2.805649,-9.344391 8.295692,-21.525932 14.3592,-27.976509c11.291618,0.856972 -7.07996,-4.457809 1.207981,-9.309204c3.58403,-2.834145 10.114086,-2.257401 3.44656,-5.519241c0.684158,-3.065098 12.616127,-8.376106 4.685112,-8.141617c6.396011,-7.580341 16.799599,-9.067661 19.009125,-16.859921c6.544655,-7.206059 14.020081,-1.94854 17.06881,4.9328c-2.23687,5.03883 -7.067894,8.33604 -1.582657,12.023701c-0.356087,6.055099 -12.870857,17.563316 -6.130272,18.151672c5.524086,-9.316589 11.384544,-18.848843 12.913712,-27.858013c3.604172,-2.91748 13.341408,-9.577969 2.990852,-4.634518c-10.355423,3.183727 -15.19149,-10.583611 -3.729439,-12.394171c8.300346,-3.730261 6.268944,2.4289 3.279877,3.355848c10.97641,5.441551 3.231094,-14.827 13.651207,-5.873819c10.624626,0.864071 -9.921188,-8.73284 2.189323,-8.52799c9.082016,-1.013399 8.565201,13.8619 6.257736,15.321461c-4.859894,-2.66643 -20.039528,-1.883282 -7.979942,2.146301c5.27375,2.51659 17.185493,8.367237 6.454292,12.973709c-3.300797,4.1735 10.806778,6.38649 2.180176,12.687599c-11.468628,5.014904 -27.150322,6.547321 -31.767464,21.050472c-2.046951,6.056511 1.888992,23.542076 -9.53109,14.721687c-6.803017,-7.655281 -24.679176,-0.106659 -23.228569,-13.676056c-4.265678,5.623878 -12.397259,9.879799 -16.08099,16.412148c-5.962997,5.838028 9.231232,7.417297 5.181961,-1.172493c6.601429,-10.658737 24.384113,-3.359589 33.053936,2.498154c6.457001,1.548309 4.975075,22.25061 9.465401,8.397522c1.214066,-10.238701 17.607231,-6.840195 6.942741,-16.292892c-9.515205,-10.232048 3.824219,-22.808655 14.428291,-23.823822c9.234711,-5.00032 24.539581,-1.473587 15.449066,8.534958c-6.176804,-5.830734 -10.530373,-1.06134 -12.242706,4.032227c-8.343903,-10.07254 1.815109,20.629707 7.798386,5.519699c8.941498,-3.977699 5.716385,14.763657 -2.406418,14.325249c-6.563217,10.405846 -21.934059,6.503929 -28.946167,16.817856c-9.711647,3.5588 -14.785469,-5.407829 -17.287262,-11.949318c-4.953247,9.741577 -18.606449,16.415543 -20.874329,28.971092c-0.233231,4.200668 -4.240818,22.096634 2.08971,13.834946c0.32951,-11.658005 3.119061,-26.57473 15.944042,-30.515366c9.399574,2.760292 21.689308,11.298096 29.108421,-1.451363c9.840378,-5.196877 22.72747,-6.41346 31.964317,-5.152946c1.387177,11.272781 -2.824142,22.870193 -0.746796,34.278549c-7.866638,3.606995 -10.786758,11.454422 -12.044807,19.450226c4.303947,0.262756 15.435478,-8.475342 14.598625,3.727112c-1.75206,4.866989 -0.628876,11.400757 -0.811279,14.038651c-2.440277,7.371628 1.64595,25.446579 -10.117218,28.188583c-7.575966,-7.565628 -12.797058,15.533966 -2.429169,5.741455c15.293289,-6.815384 7.408493,18.456863 4.545456,25.829514c-3.72348,4.994537 3.54248,24.752838 -8.482285,22.949097c-4.983887,-8.988373 6.209595,-25.191559 -10.560326,-25.156952c1.473984,3.48558 3.456436,11.883102 -2.170471,14.747192c9.2789,3.073303 6.773277,12.115356 -2.052391,10.845886c-6.404312,3.152435 -7.362579,-3.84613 -5.519081,-7.636993c-3.035103,-7.502609 -12.588066,-15.536728 -2.563652,-21.212997c6.801216,-5.769379 -1.916656,-11.714188 6.31398,-16.703903c8.971291,-11.372665 -3.478371,-20.195358 -8.814667,-29.246384c-4.194695,-3.610825 -4.742058,-27.966309 -7.322998,-13.665741c0.517258,4.500381 -2.756302,10.417953 1.628647,13.601669c4.57093,9.181366 14.057907,19.273468 8.504074,29.864609c-5.707626,13.267258 -10.219131,-14.100281 -13.037392,-3.717117c5.803215,9.204239 -17.809151,11.956604 -2.656021,13.64798c5.838066,-2.391464 17.124092,-2.893051 7.800179,5.381256c-16.014023,-0.805756 5.55661,17.439362 0.056404,21.620453c-3.488342,-7.725922 -20.54998,-10.582321 -14.909187,-19.932281c-5.069183,-2.277802 -11.298073,-2.236832 -12.650513,-8.747757c-4.197083,-5.781738 -6.072563,-12.622192 -5.100922,-17.645752c-13.037601,-0.890808 -0.229271,-10.179611 -0.619972,-14.213928c-8.946171,-0.11264 -12.326859,-8.408981 -8.737659,-14.1147c-4.526482,-9.187775 -15.43766,-18.980881 -9.519611,-30.387802c-11.563999,-7.988068 3.49342,-19.952988 1.598331,-30.297997c-0.485329,-3.83667 -5.290051,3.320435 -7.288731,3.729149zm13.79108,30.320465c7.060371,8.656662 3.58276,-7.792114 0,0zm3.285961,44.260895c0.546177,-3.859802 0.647568,3.850006 0,0zm8.662979,-32.934296c6.967278,4.950592 2.859337,9.975143 2.315102,16.479584c0.673164,8.688339 3.800362,6.320358 4.505745,-0.647232c1.710526,-12.911301 17.129791,-15.581573 25.410767,-23.432297c5.424408,-11.052963 17.899757,-16.722717 22.139328,-28.654297c4.976257,-11.281563 23.015961,13.482849 14.521454,-3.159943c1.839706,-13.358856 -16.088455,-2.55983 -20.585487,2.879639c-5.990257,6.42984 -13.837997,12.590729 -21.603241,13.886017c2.265404,11.864624 -11.964973,24.972702 -24.04303,22.555801l-1.38472,-0.055405l-1.275917,0.148132l0,0zm0.47298,-62.059845c5.304272,3.702225 3.608799,-5.657188 0,0zm2.812992,107.042648c0.79425,13.051331 11.749313,-14.989532 0.361946,-2.273529l-0.361961,2.273529l0.000015,0zm0.995735,-12.795319c4.26915,7.801987 3.102135,-6.300339 0,0zm0.672119,-119.215652c7.12326,-1.216835 11.676544,-15.684517 6.419266,-19.240105c-12.601925,-0.589088 2.60675,11.027924 -5.812134,17.243004l-0.607132,1.997101l0,0zm1.020653,-25.764923c7.899063,-2.912079 6.316498,-6.37965 0,0zm2.06617,174.579132c7.475937,2.597778 4.380043,-7.190353 0,0zm3.982979,-79.236481c3.429695,5.247833 17.926888,-7.900589 7.21949,-11.424561c-7.289589,-10.308716 -3.818306,0.121414 -2.20845,4.895004c-1.803581,2.045837 -4.481392,3.664139 -5.01104,6.529556zm0.323624,65.569855c7.500198,6.779938 7.777985,-7.639694 0,0zm1.194901,-18.894272c5.617889,2.300766 19.45195,0.86203 6.735657,-3.793869c-4.882759,-3.543503 -5.291412,-0.360703 -6.735657,3.793869zm4.08255,-148.689735c6.302719,-1.300819 2.231064,-3.716888 0,0zm8.662987,-19.61618c1.709229,-2.892139 2.22271,1.75404 0,0zm7.343628,-3.037029c6.572342,-6.404289 8.039421,2.486561 0,0zm9.758301,-6.77107c5.56424,-4.802929 3.564812,3.738451 0,0zm0.572548,140.947802c-1.092178,11.228287 8.484322,18.927277 11.899162,26.984711c4.606018,0.733795 13.723557,21.133331 12.540817,10.702164c-3.728905,-12.117096 -12.516045,-20.687531 -19.030502,-30.663879c10.197189,-3.357361 0.953819,-24.819702 -5.01709,-11.440674l-0.304962,2.023239l-0.087425,2.39444l0,0zm7.020012,-102.885422c6.144196,7.016144 5.554222,-6.648228 0,0zm1.742561,175.674454c5.618851,7.234985 22.885963,-5.39566 7.176689,-1.629196c-2.308678,0.710129 -5.176567,0.086639 -7.176689,1.629196zm8.762558,-133.38015c3.482536,1.147255 1.416573,-1.36187 0,0zm10.505119,-15.931946c2.691238,-2.41172 2.56366,3.550644 0,0zm10.25618,51.156441c3.686996,-12.132935 0.670929,-24.457748 1.370728,-36.938911c-1.310181,-15.627998 16.282516,-15.04863 23.488739,-5.13813c12.239441,2.456856 0.912445,-10.179893 -3.480316,-13.795036c-5.904602,-2.290947 -15.868271,3.508797 -19.848907,-4.177238c-3.446915,-10.696411 2.200974,-26.697033 15.041977,-17.314243c4.737106,1.591652 19.998322,11.404018 11.184189,1.114342c-11.432297,-12.015869 9.170624,-3.846569 15.563049,-3.347622c5.574402,1.54401 16.78598,-0.86026 16.686798,6.855133c-6.356598,-4.23999 6.319519,10.297089 -1.639923,14.236732c-9.121979,8.286369 11.304504,2.976204 12.056427,12.585464c1.61467,6.1689 6.103989,15.270493 13.57605,15.874275c-0.645248,-4.095917 0.59729,-15.64489 -6.231079,-13.070557c-8.506714,-0.34935 -17.379303,-25.149673 -2.597641,-24.083c6.33519,-1.740189 9.831131,6.979561 13.575729,10.56575c6.763428,8.888206 5.039444,19.510094 14.1147,27.607063c4.358719,9.776947 -2.170776,20.131142 -3.971512,27.988594c-5.797211,-9.283722 -7.643997,9.332916 -2.400208,12.752899c1.103043,7.532761 -5.655884,12.212433 -3.404785,20.715591c-3.624893,8.547623 -5.585815,25.735382 -15.755051,26.624649c-0.920044,-4.443451 -6.29744,-24.288101 -8.614578,-12.82048c4.028595,5.81781 2.840393,16.692154 6.804733,20.592529c7.988647,-2.435516 6.440109,3.206009 4.812653,9.371643c-2.037964,7.020248 -4.288834,20.713409 -10.65448,20.91066c-1.483643,-8.596573 8.56752,-22.44429 -0.186462,-27.245911c-2.389359,9.973984 -7.429993,17.364838 -4.942001,27.768341c-1.301178,4.483856 10.71492,-0.092529 2.504272,7.218491c-5.638474,2.197586 -5.758713,14.613876 -14.67688,11.302704c1.69426,-3.701477 14.508286,-17.724854 4.229538,-11.143814c-10.180359,7.386063 -8.897598,21.229431 -22.146652,24.572632c-8.058975,3.165253 -20.287628,-9.352417 -26.191498,1.893188c-7.234268,1.262787 -6.096359,-13.4702 -7.570602,-18.757324c5.015137,-11.785507 -1.121658,-25.492676 3.85025,-36.52356c10.029892,-1.659317 -8.84584,-12.134705 0.981201,-18.999451c1.123611,-4.926559 -3.62294,-10.172241 -3.126175,-15.526199c-1.740234,-8.590729 0.728394,-17.696365 10.542618,-14.345673c-13.982086,-1.000595 -12.41301,-15.625244 -12.940002,-25.997284l-0.004898,-1.326248l0,0zm2.987228,114.411194c5.166229,6.099823 3.269852,-5.852829 0,0zm2.539154,-155.659966c4.364258,9.591896 13.377014,24.206627 24.788147,21.357674c10.192383,-11.240379 17.987061,5.433144 22.453156,10.173813c11.282944,-10.506302 16.679382,11.879944 15.685471,20.554413c1.287521,4.634827 18.345993,10.865311 11.878616,4.298218c-9.397415,-8.395294 -7.954361,-24.549614 -19.192993,-32.934296c-1.826614,-7.388077 -18.546844,-0.470367 -11.139023,-11.774734c4.169281,-6.556656 10.663635,-1.462555 16.106613,0.415955c9.00499,-0.093208 13.19458,20.049835 17.216507,16.986763c-1.274216,-9.960419 -9.624222,-20.408653 -15.811325,-24.273323c-3.803925,-8.271591 -25.047989,8.388329 -19.079971,-8.382721c-0.024673,-5.38839 -7.464813,-9.93998 -3.172791,-15.048035c3.536148,-4.253448 6.222137,-20.394051 -1.765945,-10.356743c-10.510468,11.882347 -23.514908,2.252327 -34.002838,-3.609791c-6.521255,7.689335 13.830963,9.36005 18.14328,15.28487c12.241959,3.209969 18.010818,18.272102 9.927963,27.915161c-8.674927,-0.681351 -14.499908,13.24482 -20.638901,0.586433c-2.521881,-2.858345 -6.667419,-16.048286 -11.395966,-11.193657zm2.763199,-46.999187c-0.168793,-14.635929 17.831757,-10.93758 26.294327,-6.171429c14.045364,6.444389 1.677902,-8.303181 -5.457123,-7.007771c-8.666473,1.44854 -12.51738,-16.72464 -3.884644,-7.109119c2.663513,7.39418 11.952606,-0.553591 15.675278,7.083679c8.23288,2.441132 15.718628,19.523621 1.351791,14.372711c-10.484604,-2.853752 -22.461441,-9.98756 -32.35733,-2.15012c2.710098,1.099777 13.324234,3.4422 3.720428,4.899479c-2.179489,-0.168941 -5.606522,-1.038979 -5.342728,-3.917431zm0.672134,174.180836c10.26767,8.283112 15.791443,-6.053268 24.560287,-8.567047c-13.042114,-2.143051 1.196579,-16.047852 -5.282654,-24.635361c-7.759186,-11.943359 5.04364,-24.022034 -0.933884,-35.741791c-5.620728,10.882858 -10.948715,22.041245 -3.552765,33.506744c4.861221,10.800095 -7.644516,17.504196 -2.764893,28.347031c-2.463959,4.110626 -7.97702,5.091553 -12.026093,7.090424zm0.3983,19.292572c5.545624,5.056046 20.496414,1.332809 7.798752,-3.868103c-2.449356,0.03157 -5.851944,2.203232 -7.798752,3.868103zm0.796585,10.629578c3.945694,12.819687 10.982315,-5.533554 0,0zm1.568298,-101.939468c10.459396,-6.926437 27.112762,-3.935181 31.957489,9.797211c7.23941,11.387054 -3.734711,22.051117 0.045975,34.094009c0.099258,12.794937 -3.482346,24.599899 -10.682205,35.193268c-8.5224,6.673172 6.787491,17.55899 -5.23996,23.975174c-8.209763,6.233185 6.419464,15.187988 3.62178,2.76004c2.677689,-6.745422 12.344559,-10.415054 4.947693,-18.229935c-0.173065,-7.27858 4.517838,-18.501968 11.262619,-21.835205c6.505249,0.625198 19.395569,0.621353 6.259003,-3.173294c-9.860199,-1.522049 -2.41861,-11.489059 -5.977036,-17.548691c-3.38826,-11.165497 2.878204,-22.339279 3.135803,-33.556625c10.427734,1.445999 21.148438,8.312668 27.487778,16.986557c2.172455,6.640091 5.238708,15.261536 5.015457,3.184906c-1.230087,-7.607147 6.354065,-20.523804 -5.934402,-18.304565c-12.155762,-5.165207 -22.379532,-14.681839 -35.891785,-16.299179c-19.254028,-3.16275 -0.973511,-19.066254 -3.253372,-29.038223c-5.452591,4.912704 -13.123199,15.384338 -18.763977,16.211975c-5.312851,-3.806137 -6.519012,12.484207 -7.99086,15.782578zm35.87175,77.344559c3.866257,5.318222 13.471985,-2.626389 2.154007,-1.056488c-0.622116,0.165817 -2.070999,0.043777 -2.154007,1.056488zm2.912537,-86.356064c6.639221,1.022034 8.235321,-8.731339 1.318619,-1.410187c-0.439545,0.470062 -0.879074,0.940125 -1.318619,1.410187zm5.078323,-100.271591c4.891037,1.6717 14.177078,11.3475 2.992889,4.23428c-1.33194,-1.06031 -2.854553,-2.392399 -2.992889,-4.23428zm3.261047,150.457169c2.38623,12.076981 7.768661,-0.897156 0.512238,-2.332367l-0.487335,1.85939l-0.024902,0.472977l0,0zm1.64299,-137.487587c7.036743,-3.524231 20.845123,15.775482 4.761871,12.080795c-4.75264,-2.136864 -1.5327,-8.536835 -4.761871,-12.080795zm25.341721,56.782402c4.674271,7.072014 13.476151,-3.783691 2.238831,-1.974747c-0.933929,0.194672 -2.327805,0.764725 -2.238831,1.974747zm0,-28.478325c2.267609,4.736061 5.48851,-3.25621 0,0zm0.7966,70.200066c10.547943,5.549286 5.860352,-5.303055 0,0zm11.948959,-45.455788c1.915833,3.183174 1.262009,-2.963608 0,0z" id="path2339"/>
  <path fill="#333333" d="m35.305931,127.975327c4.337379,11.11348 -1.537762,22.261398 3.947701,33.224609c2.50145,12.31015 9.241688,23.231979 10.913799,35.830353c1.63723,10.729462 7.381149,20.015503 10.790478,30.336334c8.00116,24.7771 29.981094,44.690445 55.214149,50.760483c12.292114,3.979065 25.729507,-3.686676 20.739838,-17.520569c1.297668,-5.809204 7.242035,-10.216339 4.906723,-1.014496c-6.029755,15.094421 11.703064,18.913025 22.844208,16.443695c13.78624,3.824707 20.363953,-9.226379 30.89505,-13.090302c10.719879,-6.661224 18.568329,-15.345184 23.488098,-27.446747c7.631943,-8.954971 10.133682,-21.134979 11.626343,-32.512482c-0.03447,-14.144669 12.84494,-24.804916 14.282288,-39.128662c2.179489,-11.226974 1.195801,-23.247162 3.913879,-34.139648c5.509903,-10.473465 2.83139,-23.607269 -3.510529,-33.101517c-2.795471,-11.685669 -8.719604,-23.264236 -16.852478,-32.318985c-9.392059,-10.603893 -16.508224,-23.021053 -26.128662,-33.467203c-13.060303,-7.418001 -24.729065,-21.258851 -41.202728,-19.697731c-10.022568,2.585171 -14.635895,17.232311 -14.478455,26.665262c4.823532,5.069267 -2.957336,23.948948 -3.329895,9.448936c-1.219376,-12.846378 -1.848846,-26.443668 -8.958221,-37.665488c-11.471794,-4.86567 -26.859276,3.3116 -33.905144,12.521501c-12.257225,2.08507 -19.178955,13.011469 -26.576324,21.930059c-8.070137,8.588829 -16.568348,16.916519 -20.538109,28.376518c-5.127808,11.673515 -12.6992,22.377174 -15.268219,35.1278c-1.706181,6.668922 -2.922951,13.532829 -2.813789,20.438278zm0.846378,0.024887c1.304359,-17.266251 5.95295,-34.66851 15.984161,-48.991043c4.423008,-12.546188 11.604561,-23.96793 21.716122,-32.710419c5.065071,-6.50518 11.959694,-7.812611 12.140594,-14.734232c7.231636,-7.02722 17.112625,-5.46789 21.072121,-14.06798c7.598259,-5.99216 0.725403,13.859711 7.989594,12.71319c0.149956,-5.14551 -0.813644,-15.42716 2.095657,-16.61625c5.861908,5.43823 14.93541,-2.22797 15.962479,8.583869c2.94165,5.81752 1.683777,12.563061 7.30896,16.6483c-6.090393,-2.37534 -11.345764,-2.142719 -3.047394,2.769291c3.175049,2.003441 6.191345,13.619949 -0.779297,6.471958c-6.553162,-1.471149 -7.985641,5.343632 -0.277985,3.987232c15.30336,4.42136 -16.795891,14.742928 -3.403427,14.881989c10.511841,-3.913258 7.023193,22.766258 -2.970673,11.407494c-10.002739,-1.975876 -1.392548,22.274109 0.388962,6.8825c7.893814,-5.882675 13.726761,5.399155 7.300812,10.828278c-6.52681,12.655548 -22.003242,13.859261 -32.663666,20.27739c-7.78965,11.213623 -21.408768,0.611633 -22.880142,-7.998741c-1.958664,5.782021 -7.900314,10.809341 -10.354797,14.66066c10.363258,-11.696541 21.343941,8.968307 31.849571,-1.159798c8.936417,-8.790062 22.654999,-8.64035 33.50692,-14.273201c6.752716,-13.45121 4.228592,10.330688 4.413956,16.012764c-2.61441,12.261299 3.611771,27.250877 -9.501709,34.006233c-1.675415,4.636673 -4.948952,11.571854 2.155441,5.943756c13.448227,-4.994904 8.110474,19.065811 8.866974,27.272842c1.203583,8.809631 -0.685028,16.306458 -4.30748,23.616104c7.36525,7.307404 1.126984,22.350876 -0.900116,31.658371c-1.30957,9.893494 -2.140488,22.253113 -10.853638,30.121307c-9.173698,0.811707 -29.542076,-0.419952 -27.795921,-12.525879c12.850822,-3.608002 -11.587105,-18.687515 1.61795,-23.961517c7.104622,-6.065826 -0.761818,-13.433441 7.640839,-18.520935c8.327316,-11.524628 -5.307327,-19.259552 -9.65332,-28.71933c-3.047394,-4.382584 -5.120224,-20.510284 -6.088089,-7.009674c1.998375,12.089111 16.787125,22.631363 11.767929,35.933044c-5.776291,6.86232 -5.173714,18.840164 -15.272934,19.58783c3.077385,8.254074 16.155144,20.929321 2.50927,24.064117c-11.18676,-7.251007 -20.41243,-18.1409 -26.302429,-30.131744c-2.868755,-11.09137 -9.676304,-20.658157 -12.257835,-31.704071c-3.370998,-12.639969 -5.326027,-25.566559 -11.789009,-37.022125c-2.158798,-11.075134 -7.064648,-24.258011 2.249962,-33.719818c4.544949,-15.120102 -7.922359,4.527298 -7.438412,-4.461761zm13.79108,54.69133c1.92033,3.41925 1.505871,-2.289474 0,0zm1.31937,-79.410706c7.50663,8.251984 2.56205,-12.187431 0,0zm0.995739,55.13942c2.939922,4.581985 2.54298,-3.804626 0,0zm5.52639,43.937271c4.321892,0.882965 2.296459,-5.999207 -0.000008,0l0.000008,0zm3.037022,-109.208412c9.040409,5.419975 6.537266,-12.09626 0.778587,-1.22641l-0.778599,1.22641l0.000011,0zm0.373409,57.529213c2.978951,5.330551 2.17268,-6.892197 0,0zm0.423191,-7.941071c1.203548,3.934692 7.106869,-14.985519 4.890263,-15.096741c-3.623234,3.938339 -4.288185,9.989166 -4.890263,15.096741zm5.00362,41.298553c3.262321,9.404282 3.918991,-11.877487 11.595406,-10.638306c12.335899,-6.469284 20.686256,-16.475967 29.467384,-26.879593c7.138077,-7.37825 13.641029,-25.695763 24.925156,-11.064621c-1.553558,-3.188889 -0.203796,-15.463226 -8.392616,-8.632751c-12.344154,1.373062 -14.840027,16.838837 -24.61042,20.91449c-7.471649,-1.138031 -7.917328,-0.489914 -7.693062,5.688644c-3.524307,12.398621 -20.158615,13.941757 -22.713608,25.016891c-0.949158,1.819794 -2.606209,3.392456 -2.578239,5.595245zm1.045532,30.245773c4.318878,2.679871 5.3993,-9.352921 0.35376,-1.217331l-0.35376,1.217331l0,0zm2.340004,-147.768654c5.970711,4.187027 0.536354,9.828156 1.095314,14.512985c4.120949,-2.59536 8.871605,-21.932339 -1.095314,-14.512985zm5.974472,86.256462c6.559914,1.311203 14.070572,-8.79155 4.48085,-13.044266c-4.925217,-5.050018 5.744957,9.431396 -2.969254,10.121017l-0.881744,1.100021l-0.62986,1.823227l0.000008,0zm0.074684,-58.724091c9.749489,3.221336 20.08519,11.00695 20.543823,20.275528c0.125374,-10.341492 17.499702,-13.732002 6.451881,-22.761848c-5.03067,-3.325294 3.741844,-19.22171 -2.550156,-8.242844c-2.142906,6.215683 1.742508,24.371017 -10.25618,15.53363c-4.159676,-2.381569 -9.278419,-5.370247 -14.189369,-4.804466zm1.070427,123.920547c5.687241,3.676453 3.519958,-4.423904 0,0zm2.01638,-20.985336c7.042686,5.31105 2.302742,-6.021835 0,0zm11.276833,20.960434c1.602798,4.259338 0.48275,17.820206 5.28772,8.544266c-2.639732,-1.595535 -1.205246,-10.91745 -5.28772,-8.544266zm0.647224,-143.213112c4.470566,0.639191 8.826004,-15.249237 1.826073,-3.861237l-1.009438,1.602127l-0.816643,2.259102l0.000008,0.000008zm4.032768,-38.361107c3.318703,9.790989 1.392227,-7.30497 7.608757,-6.9862c-3.546463,-0.462849 -7.512451,3.458372 -7.608757,6.9862zm2.46447,16.653839c3.133926,3.112713 3.022461,9.478722 5.159027,2.036942c-2.279633,-4.599621 7.781807,-12.994541 -0.920937,-11.47229c1.661377,4.45554 -3.22155,5.822849 -4.238091,9.435349zm7.194267,-25.142569c3.70195,0.90007 1.943344,-4.46489 0,0zm1.468727,47.770903c3.356461,0.595345 2.728477,-5.709541 0,0zm2.389786,89.592201c-0.399147,9.543427 9.338043,15.616089 11.657173,23.228394c3.369499,2.795456 14.386681,18.948578 8.276222,6.002487c-1.696594,-12.668976 -17.3452,-16.350922 -16.936363,-29.294998c3.757111,-3.152954 3.313988,-14.466827 -1.847511,-7.181534c-0.881599,2.305374 -1.137688,4.795456 -1.149521,7.245651zm8.015755,91.309891c4.541748,3.486481 -0.526039,20.072327 6.198509,11.276825c-4.128548,-7.555725 7.188293,-23.942795 -6.13665,-22.770844c3.583397,4.878342 4.420197,7.104218 -0.061859,11.494019zm5.601067,-21.159592c5.262512,1.122513 3.927773,-3.443604 0,0zm0.124474,-200.841911c4.992432,3.991817 13.662636,2.24519 3.252602,0.1712c-0.553116,0.410118 -3.082245,-1.569263 -3.252602,-0.1712zm1.742546,184.835304c6.530289,1.56694 9.759598,-8.538422 2.26226,-5.144974c-0.903748,1.630051 -1.935684,3.275665 -2.26226,5.144974zm10.978104,-201.912346c2.484177,-3.317451 5.430054,14.84483 0.443893,1.91131l-0.443909,-1.91131l0.000015,0zm3.908295,10.08193c0.586578,-4.8421 0.6371,4.350019 0,0zm5.874908,239.551516c4.255981,-9.022552 -3.10022,-20.957153 1.560852,-30.9375c3.94812,-8.005112 -3.756241,-23.196564 5.809799,-26.831116c-10.03421,-7.712173 2.582962,-18.864136 -4.83345,-28.332779c-3.39801,-9.981934 6.783936,-18.157852 -1.4935,-25.357697c-2.157654,-11.930115 0.235092,-23.997223 0.933929,-35.689178c-1.174576,-10.499924 -3.669586,-23.669716 4.174744,-32.139587c8.275162,-9.595673 18.838043,12.286568 23.433228,3.868629c-6.06485,-10.848206 -23.728088,-5.091255 -28.415619,-15.515007c-0.243423,-7.784851 -3.09935,-30.3022 10.133591,-20.458771c4.961807,0.895039 18.725433,8.677116 10.283829,-1.466442c-8.944916,2.011101 -20.850815,-4.954597 -11.383926,-14.247379c7.850098,-6.942009 20.324463,-0.29549 27.932571,1.281281c-6.124481,-6.58604 -18.990448,-6.255161 -23.207779,-16.720379c-2.719009,-0.887171 -8.884842,17.32494 -10.813599,9.635189c3.275085,-8.200029 8.187119,-25.93018 18.414063,-12.36632c4.844559,6.422779 9.464447,8.215879 16.977463,9.459589c13.013275,4.353321 -17.248795,-11.20014 -1.698608,-7.368399c6.707047,6.24638 16.519043,17.256559 13.312836,26.432211c-10.982971,5.97398 -23.970871,-10.143143 -34.438385,-3.943192c10.160858,5.550461 22.35524,6.651039 33.720734,9.105549c5.175919,-1.534637 16.796112,9.959652 8.727417,0.135502c3.733612,-6.862911 -10.888153,-17.547752 -3.046112,-20.36092c7.325073,4.812359 16.616028,14.24258 14.613846,20.768417c9.170883,6.583584 18.494278,14.038754 22.321686,25.167782c4.66188,11.203903 10.656693,21.839478 12.449081,33.908852c1.087372,7.915199 -4.268814,17.719452 -5.972015,22.962952c-4.72612,-11.239754 -8.150757,7.394211 -0.225372,9.116974c2.112701,13.235977 -4.143265,26.809006 -9.524658,38.972015c-8.046982,10.605743 -4.351517,24.691376 -9.787476,36.46936c-5.339233,10.603622 -11.683777,21.326981 -18.572388,30.907303c-7.760132,6.399048 -16.817383,9.525421 -24.896301,14.499939c-2.450577,9.86084 -21.807175,4.972595 -20.18515,-1.08136c-3.807816,3.394348 -15.249619,8.340515 -16.305328,0.124481zm7.020004,-170.994423c2.67807,4.829491 9.18335,16.452698 12.966537,15.333725c-4.338501,-2.687767 -7.260193,-18.550301 -12.966537,-15.333725zm1.842117,-30.444931c4.203598,3.93895 2.682037,-4.668201 0,0zm3.783844,187.922112c1.393173,2.854797 3.723434,-2.677917 0,0zm0.821487,-12.048508c5.628845,3.618698 12.730545,-0.490189 2.750549,-1.792465c-0.87001,0.477371 -2.372131,0.656265 -2.750549,1.792465zm0.024887,-92.305649c10.89917,-7.457687 26.233032,-1.698212 31.174271,10.67041c8.664032,7.976318 -3.231918,20.518036 1.288712,26.161179c6.359772,-6.97818 -2.237595,-32.746078 13.055481,-22.933548c10.127823,1.259628 17.835144,13.427734 23.242035,17.251328c-0.28038,-5.920761 6.208054,-17.712662 -4.451981,-13.857422c-10.484787,-7.592453 -23.641708,-10.676147 -35.265564,-15.399673c-7.549683,-4.812546 -16.164993,-12.664871 -6.658615,-20.556854c3.993088,-5.298355 3.35556,-16.452103 -1.26767,-5.027916c-5.661163,9.03344 -19.576187,11.428032 -21.116669,23.692497zm0.995758,74.456909c5.017471,2.739609 16.549759,-8.163315 13.392761,-11.351532c-2.860138,-7.676437 5.569611,-18.164627 -0.952789,-27.181122c-2.184052,-5.278992 -3.580597,-10.380676 0.464813,-15.144577c3.05249,-5.849518 1.07074,-22.997482 -2.460144,-7.542007c-9.935806,11.628159 3.340988,22.753448 1.840179,35.40036c-6.221436,4.86647 -5.980804,9.383759 -3.970718,16.656708c-0.350098,4.936508 -6.198639,5.568817 -8.314102,9.16217zm1.070419,-154.987839c4.335785,4.411499 10.796661,3.995605 2.744324,-0.525757c-0.622772,-1.131851 -2.819626,-0.880524 -2.744324,0.525757zm8.239792,3.982979c11.050903,5.930626 22.725693,15.200043 17.840439,29.538025c-1.79631,7.254539 -17.939438,6.468742 -15.024475,13.423866c10.525772,-6.940407 22.968491,-1.235695 25.712158,10.783485c12.928787,-11.121574 17.862869,11.845024 17.574905,21.483223c4.129181,5.198547 16.936691,9.233765 6.23558,1.24649c-2.572952,-12.897873 -9.143646,-23.791954 -17.731567,-33.407768c-10.813751,5.20591 -15.246597,-9.43602 -4.259888,-12.809052c4.116379,-0.57711 18.010315,-2.399269 6.327393,-3.771835c-6.955994,1.606461 -17.640381,4.022865 -12.344711,-6.585304c-4.602219,-8.361084 -6.057526,-15.683708 0.008926,-24.226158c0.756226,-11.354469 -7.019928,10.708458 -14.038147,5.846504c-3.466309,-0.054192 -7.074783,-0.085625 -10.300613,-1.521477zm2.887665,-10.828728c4.102875,5.796211 4.028076,-1.352577 0,0zm0.348511,195.987671c4.274445,10.275787 4.318817,-9.713104 11.595718,-10.743927c2.349365,-4.967316 -8.487213,-12.03093 -0.875183,-17.479416c0.881287,-9.594528 11.40123,-15.541977 16.763885,-15.351563c-11.882904,-1.176895 -1.882889,-18.709961 -8.958435,-20.269791c-0.715271,13.158951 -3.84053,25.421982 -11.671432,36.298096c-7.554718,4.860153 2.541077,10.912918 -0.235825,17.31134c-1.51474,3.847763 -5.511185,6.22879 -6.618729,10.23526zm20.711517,-2.862778c3.467133,9.170059 4.224854,-8.345474 0,0zm2.190628,-26.885147c3.482559,1.147247 1.41655,-1.361908 0,0zm7.094696,-146.449303c5.700867,-0.186935 16.109802,8.099335 9.647552,-3.362801c1.510666,-5.612694 3.100266,-13.605385 -4.151749,-10.97937c0.316574,5.318695 -1.687103,10.590805 -5.495804,14.342171zm7.617462,141.794197c1.003738,4.484787 3.480103,15.233536 5.091064,4.708084c-0.144302,-3.250198 5.802048,-20.448318 -0.037674,-14.416611c-0.91188,3.629242 -4.007538,6.233078 -5.053391,9.708527zm4.356384,-118.518639c3.840469,6.885498 4.680618,-3.621864 0,0l0,0zm3.335739,-36.792801c5.46077,3.406067 6.199509,-7.359131 0,0zm0.547668,118.767555c1.31041,3.625427 2.175446,-1.431854 0,0zm0.248932,-90.513275c3.893677,7.802368 14.86554,13.686951 9.111069,0.522774c-0.557617,-4.170517 -7.485397,-2.897301 -9.111069,-0.522774zm1.443832,97.881805c-1.746231,5.708649 2.626877,11.802032 7.420898,5.199295c-5.542236,1.79451 -7.412308,-13.645157 -7.420898,-5.199295zm3.261078,-79.759232c0.670807,5.864853 6.768982,9.034378 2.362152,1.184669c0.099152,-0.56395 -2.268982,-3.280434 -2.362152,-1.184669zm9.335098,-3.659363c8.506348,5.482971 6.01004,-5.838211 0,0z" id="path2337"/>
  <path fill="#000000" d="m35.317619,128.015396c-0.449329,6.064621 4.319592,15.057159 1.1451,4.331482c-2.562359,-13.632401 2.797932,-27.699966 7.592472,-40.367477c6.342239,-10.753754 10.833797,-22.472008 17.295959,-33.14394c9.071342,-9.554279 17.334587,-19.861839 26.291176,-29.53401c6.884117,-5.09927 14.65551,-6.826771 20.178612,-13.550741c9.401474,-4.79799 27.21254,-14.20832 29.934006,2.38414c5.08934,12.29315 3.179565,25.981491 6.049149,38.70961c10.135559,-8.332909 -0.453232,-21.61121 6.002884,-31.606359c2.186707,-13.78228 17.044342,-16.7867 27.389725,-10.0325c10.703934,6.78633 22.540298,12.82269 30.400253,22.971021c8.467529,10.29958 15.370392,21.758881 24.580673,31.449837c6.457214,8.986549 10.530869,19.474281 13.864655,29.611885c6.762802,9.687805 7.026169,23.827866 0.502365,33.578354c0.797348,12.356308 -1.178101,24.709747 -3.88739,36.716064c-2.80481,13.570221 -15.516724,23.639862 -12.6418,38.13588c-3.824921,10.715271 -5.215652,22.280411 -13.463699,30.842377c-4.623184,12.152374 -14.636169,21.310425 -26.397736,25.432007c-8.23262,13.095673 -24.058853,12.001617 -37.595093,11.320709c-17.313675,0.463806 -6.841568,-19.035339 -10.014206,-29.040848c-6.006638,8.062256 -5.283707,19.241684 -7.717865,28.133896c-8.980881,7.277344 -21.841545,2.775665 -31.460777,-1.118286c-19.401688,-9.391541 -36.198235,-25.968674 -41.99902,-47.205368c-5.036713,-10.746536 -8.785862,-21.7435 -12.056553,-33.103104c0.29628,-13.186752 -10.00322,-22.663208 -10.214649,-35.566437c-4.17522,-4.526077 0.473541,-23.561111 -2.83633,-9.502579c1.610161,11.693817 4.68203,23.262344 10.465511,33.684067c1.863171,11.51355 4.795441,22.611099 9.068199,33.381073c5.887192,10.357361 7.073189,23.069061 15.241283,32.310516c11.950119,15.967133 29.814545,29.642487 50.209267,31.363525c11.801804,3.04068 19.177124,-7.390381 15.679779,-17.953583c1.297668,-5.809219 7.242035,-10.216339 4.906738,-1.014496c-6.029755,15.094421 11.703064,18.912994 22.844193,16.443665c13.786224,3.824707 20.363968,-9.226349 30.89505,-13.090271c10.719879,-6.661224 18.568344,-15.3452 23.488098,-27.446747c7.631943,-8.954987 10.133682,-21.134995 11.626358,-32.512482c-0.034485,-14.144684 12.84494,-24.804932 14.282272,-39.128677c2.179489,-11.226974 1.195816,-23.247162 3.913879,-34.139648c5.509918,-10.473457 2.83139,-23.607262 -3.510544,-33.101509c-2.795456,-11.685684 -8.719589,-23.264244 -16.852463,-32.318993c-9.392044,-10.603897 -16.508224,-23.021057 -26.128662,-33.467209c-13.060303,-7.41799 -24.729065,-21.25884 -41.202728,-19.697729c-10.022568,2.58517 -14.635895,17.232309 -14.478455,26.665258c4.823547,5.069271 -2.957321,23.948963 -3.32988,9.44894c-1.219391,-12.846378 -1.848862,-26.443668 -8.958237,-37.665489c-11.471802,-4.86567 -26.859276,3.31161 -33.905136,12.5215c-12.257225,2.085072 -19.178955,13.011482 -26.576324,21.930069c-8.070137,8.588833 -16.568348,16.916512 -20.538109,28.376514c-5.127811,11.673515 -12.6992,22.377174 -15.268219,35.127808c-1.706169,6.668922 -2.922951,13.532829 -2.813782,20.438286zm28.702362,-35.797058c1.981979,3.101234 1.981865,-3.101265 0,0zm14.438316,59.097504c6.201279,-2.577286 6.577065,-8.737076 0.6353,-1.072784l-0.635307,1.072784l0.000008,0zm1.692764,-34.303444c10.084015,4.926712 -0.781136,-15.156807 0,0zm12.546394,124.966103c2.26194,5.532654 3.092514,-5.455032 0,0zm0.19915,-81.377335c2.516251,3.816528 2.971992,-4.537079 0,0zm2.364891,-54.965157c0.054726,16.322243 7.72448,-5.75338 0,0zm4.978729,131.637596c1.468285,3.25148 1.63488,-5.202728 0,0zm1.219795,-141.146973c1.310394,3.625427 2.175438,-1.431854 0,0zm17.823837,85.957748c0.865791,6.193192 9.238266,13.226746 3.522659,3.107788c-0.26786,-0.207123 -2.477699,-5.388321 -3.522659,-3.107788zm6.074051,-53.620895c3.981033,4.843796 3.980911,-4.843834 0,0zm1.070427,-43.837715c3.477058,2.585037 1.959496,-6.113129 -0.000008,-0.000008l0.000008,0.000008zm7.592567,72.465385c7.845917,1.642792 10.219681,12.088409 11.611389,16.672546c1.093964,-11.726532 -2.8125,-23.284729 -1.774399,-35.143204c1.820404,-8.963715 2.957993,-28.161057 -0.656509,-31.500015c-0.743439,14.998009 0.847122,30.263474 -1.709351,45.094116c-1.203461,3.277206 -5.827957,2.278015 -7.47113,4.876556zm5.50148,-91.832649c3.316696,9.638634 0.93631,29.06974 4.947189,33.346283c5.857239,-11.456573 -1.300491,-23.633026 -1.207352,-35.725941c-1.283951,-1.04258 -3.646118,1.07201 -3.739838,2.379658zm3.808731,166.239769c4.339798,8.338608 1.9711,-23.834 0.099121,-7.266052c-0.088013,2.420792 -0.105301,4.843857 -0.099121,7.266052zm0.199158,-36.518982c3.108124,3.212662 -1.084015,20.647446 4.489288,13.484055c-5.564087,-6.954391 6.544235,-19.383713 -2.646439,-22.165726c-0.629593,2.885101 -1.450836,5.756882 -1.84285,8.681671zm12.894913,-94.073074c1.31041,3.62542 2.175446,-1.431862 0,0zm1.692749,-66.167309c7.474991,5.064438 0.398773,-8.377331 0,0zm5.77533,107.216915c5.496796,2.567322 15.437164,4.30954 6.989777,-2.799835c2.46698,-3.734238 14.404373,-12.752769 3.067245,-6.236557c-3.521042,2.534363 -7.630966,5.532852 -10.057022,9.036392zm2.937454,33.556641c4.267838,2.499023 6.487823,-21.271622 1.294434,-5.584061c-0.638657,1.79216 -1.325546,3.648392 -1.294434,5.584061zm1.941696,-84.165413c4.128189,5.819588 3.590302,-3.146553 0,0zm7.866394,53.994316c4.774979,4.181854 1.007797,-1.468674 0,0zm0.497879,90.413727c2.44548,7.288116 0.626099,-4.004745 0,0zm1.618088,3.136597c1.597351,9.108826 6.141098,4.852692 0,0zm8.065536,-132.98185c4.121597,3.310455 12.422943,-6.657593 3.123932,-2.044754c-0.095749,0.94957 -3.157379,0.680061 -3.123932,2.044754zm0.672134,-15.33448c4.548889,10.048836 3.060822,-9.126343 0,0zm1.568298,64.89772c3.094193,5.998703 4.052368,-3.488037 0,0zm6.721268,-34.104294c4.611877,6.704346 11.82756,-8.172508 2.33902,-2.773857c-0.912079,0.692978 -2.354736,1.394798 -2.33902,2.773857zm5.576187,38.087265c3.537537,5.850479 12.476471,4.337418 2.53479,0.368362c-0.527161,0.269638 -2.019363,-1.371429 -2.53479,-0.368362zm14.015121,-12.322342c2.813583,3.979614 3.189026,-1.65004 0,0zm4.804474,-50.16069c8.23526,7.231621 4.13176,-5.650322 0,0z" id="path2331"/>
  <g id="layer1"/>
 </g>
</svg>